<mxfile host="app.diagrams.net" modified="2021-05-13T11:07:12.094Z" agent="5.0 (Windows NT 10.0; Win64; x64) AppleWebKit/537.36 (KHTML, like Gecko) Chrome/90.0.4430.72 Safari/537.36 Edg/90.0.818.41" etag="NRaprlETV_IELVnCFKXw" version="14.6.9" type="github">
  <diagram name="Page-1" id="c9db0220-8083-56f3-ca83-edcdcd058819">
    <mxGraphModel dx="1422" dy="833" grid="1" gridSize="10" guides="1" tooltips="1" connect="1" arrows="1" fold="1" page="1" pageScale="1.5" pageWidth="826" pageHeight="1169" background="#ffffff" math="0" shadow="0">
      <root>
        <mxCell id="0" style=";html=1;" />
        <mxCell id="1" style=";html=1;" parent="0" />
        <mxCell id="UjvTydkrQOM4uiaJyXsk-1" value="" style="shape=table;html=1;whiteSpace=wrap;startSize=0;container=1;collapsible=0;childLayout=tableLayout;" vertex="1" parent="1">
          <mxGeometry x="440" y="618" width="430" height="160" as="geometry" />
        </mxCell>
        <mxCell id="UjvTydkrQOM4uiaJyXsk-2" value="" style="shape=partialRectangle;html=1;whiteSpace=wrap;collapsible=0;dropTarget=0;pointerEvents=0;fillColor=none;top=0;left=0;bottom=0;right=0;points=[[0,0.5],[1,0.5]];portConstraint=eastwest;" vertex="1" parent="UjvTydkrQOM4uiaJyXsk-1">
          <mxGeometry width="430" height="40" as="geometry" />
        </mxCell>
        <mxCell id="UjvTydkrQOM4uiaJyXsk-3" value="Year" style="shape=partialRectangle;html=1;whiteSpace=wrap;connectable=0;fillColor=none;top=0;left=0;bottom=0;right=0;overflow=hidden;fontStyle=1" vertex="1" parent="UjvTydkrQOM4uiaJyXsk-2">
          <mxGeometry width="143" height="40" as="geometry" />
        </mxCell>
        <mxCell id="UjvTydkrQOM4uiaJyXsk-4" value="Stage" style="shape=partialRectangle;html=1;whiteSpace=wrap;connectable=0;fillColor=none;top=0;left=0;bottom=0;right=0;overflow=hidden;fontStyle=1" vertex="1" parent="UjvTydkrQOM4uiaJyXsk-2">
          <mxGeometry x="143" width="144" height="40" as="geometry" />
        </mxCell>
        <mxCell id="UjvTydkrQOM4uiaJyXsk-5" value="Status" style="shape=partialRectangle;html=1;whiteSpace=wrap;connectable=0;fillColor=none;top=0;left=0;bottom=0;right=0;overflow=hidden;fontStyle=1" vertex="1" parent="UjvTydkrQOM4uiaJyXsk-2">
          <mxGeometry x="287" width="143" height="40" as="geometry" />
        </mxCell>
        <mxCell id="UjvTydkrQOM4uiaJyXsk-6" value="" style="shape=partialRectangle;html=1;whiteSpace=wrap;collapsible=0;dropTarget=0;pointerEvents=0;fillColor=none;top=0;left=0;bottom=0;right=0;points=[[0,0.5],[1,0.5]];portConstraint=eastwest;" vertex="1" parent="UjvTydkrQOM4uiaJyXsk-1">
          <mxGeometry y="40" width="430" height="40" as="geometry" />
        </mxCell>
        <mxCell id="UjvTydkrQOM4uiaJyXsk-7" value="2021" style="shape=partialRectangle;html=1;whiteSpace=wrap;connectable=0;fillColor=none;top=0;left=0;bottom=0;right=0;overflow=hidden;" vertex="1" parent="UjvTydkrQOM4uiaJyXsk-6">
          <mxGeometry width="143" height="40" as="geometry" />
        </mxCell>
        <mxCell id="UjvTydkrQOM4uiaJyXsk-8" value="Initial School Leaver Mailing" style="shape=partialRectangle;html=1;whiteSpace=wrap;connectable=0;fillColor=none;top=0;left=0;bottom=0;right=0;overflow=hidden;" vertex="1" parent="UjvTydkrQOM4uiaJyXsk-6">
          <mxGeometry x="143" width="144" height="40" as="geometry" />
        </mxCell>
        <mxCell id="UjvTydkrQOM4uiaJyXsk-9" value="Completed Successfully" style="shape=partialRectangle;html=1;whiteSpace=wrap;connectable=0;fillColor=#d5e8d4;top=0;left=0;bottom=0;right=0;overflow=hidden;strokeColor=#82b366;" vertex="1" parent="UjvTydkrQOM4uiaJyXsk-6">
          <mxGeometry x="287" width="143" height="40" as="geometry" />
        </mxCell>
        <mxCell id="UjvTydkrQOM4uiaJyXsk-10" value="" style="shape=partialRectangle;html=1;whiteSpace=wrap;collapsible=0;dropTarget=0;pointerEvents=0;fillColor=none;top=0;left=0;bottom=0;right=0;points=[[0,0.5],[1,0.5]];portConstraint=eastwest;" vertex="1" parent="UjvTydkrQOM4uiaJyXsk-1">
          <mxGeometry y="80" width="430" height="40" as="geometry" />
        </mxCell>
        <mxCell id="UjvTydkrQOM4uiaJyXsk-11" value="&lt;span style=&quot;color: rgb(0 , 0 , 0) ; font-family: &amp;#34;helvetica&amp;#34; ; font-size: 12px ; font-style: normal ; font-weight: 400 ; letter-spacing: normal ; text-align: center ; text-indent: 0px ; text-transform: none ; word-spacing: 0px ; background-color: rgb(248 , 249 , 250) ; display: inline ; float: none&quot;&gt;2021&lt;/span&gt;" style="shape=partialRectangle;html=1;whiteSpace=wrap;connectable=0;fillColor=none;top=0;left=0;bottom=0;right=0;overflow=hidden;" vertex="1" parent="UjvTydkrQOM4uiaJyXsk-10">
          <mxGeometry width="143" height="40" as="geometry" />
        </mxCell>
        <mxCell id="UjvTydkrQOM4uiaJyXsk-12" value="School Leaver Follow-up Mailing" style="shape=partialRectangle;html=1;whiteSpace=wrap;connectable=0;fillColor=none;top=0;left=0;bottom=0;right=0;overflow=hidden;" vertex="1" parent="UjvTydkrQOM4uiaJyXsk-10">
          <mxGeometry x="143" width="144" height="40" as="geometry" />
        </mxCell>
        <mxCell id="UjvTydkrQOM4uiaJyXsk-13" value="Failed" style="shape=partialRectangle;html=1;whiteSpace=wrap;connectable=0;fillColor=#f8cecc;top=0;left=0;bottom=0;right=0;overflow=hidden;strokeColor=#b85450;" vertex="1" parent="UjvTydkrQOM4uiaJyXsk-10">
          <mxGeometry x="287" width="143" height="40" as="geometry" />
        </mxCell>
        <mxCell id="UjvTydkrQOM4uiaJyXsk-14" style="shape=partialRectangle;html=1;whiteSpace=wrap;collapsible=0;dropTarget=0;pointerEvents=0;fillColor=none;top=0;left=0;bottom=0;right=0;points=[[0,0.5],[1,0.5]];portConstraint=eastwest;" vertex="1" parent="UjvTydkrQOM4uiaJyXsk-1">
          <mxGeometry y="120" width="430" height="40" as="geometry" />
        </mxCell>
        <mxCell id="UjvTydkrQOM4uiaJyXsk-15" value="&lt;span&gt;2021&lt;/span&gt;" style="shape=partialRectangle;html=1;whiteSpace=wrap;connectable=0;fillColor=none;top=0;left=0;bottom=0;right=0;overflow=hidden;" vertex="1" parent="UjvTydkrQOM4uiaJyXsk-14">
          <mxGeometry width="143" height="40" as="geometry" />
        </mxCell>
        <mxCell id="UjvTydkrQOM4uiaJyXsk-16" value="School Leaver Cessation" style="shape=partialRectangle;html=1;whiteSpace=wrap;connectable=0;fillColor=none;top=0;left=0;bottom=0;right=0;overflow=hidden;" vertex="1" parent="UjvTydkrQOM4uiaJyXsk-14">
          <mxGeometry x="143" width="144" height="40" as="geometry" />
        </mxCell>
        <mxCell id="UjvTydkrQOM4uiaJyXsk-17" value="Not Started" style="shape=partialRectangle;html=1;whiteSpace=wrap;connectable=0;fillColor=none;top=0;left=0;bottom=0;right=0;overflow=hidden;" vertex="1" parent="UjvTydkrQOM4uiaJyXsk-14">
          <mxGeometry x="287" width="143" height="40" as="geometry" />
        </mxCell>
        <mxCell id="UjvTydkrQOM4uiaJyXsk-18" value="" style="shape=table;html=1;whiteSpace=wrap;startSize=0;container=1;collapsible=0;childLayout=tableLayout;" vertex="1" parent="1">
          <mxGeometry x="440" y="390" width="430" height="120" as="geometry" />
        </mxCell>
        <mxCell id="UjvTydkrQOM4uiaJyXsk-19" value="" style="shape=partialRectangle;html=1;whiteSpace=wrap;collapsible=0;dropTarget=0;pointerEvents=0;fillColor=none;top=0;left=0;bottom=0;right=0;points=[[0,0.5],[1,0.5]];portConstraint=eastwest;" vertex="1" parent="UjvTydkrQOM4uiaJyXsk-18">
          <mxGeometry width="430" height="40" as="geometry" />
        </mxCell>
        <mxCell id="UjvTydkrQOM4uiaJyXsk-20" value="Month" style="shape=partialRectangle;html=1;whiteSpace=wrap;connectable=0;fillColor=none;top=0;left=0;bottom=0;right=0;overflow=hidden;fontStyle=1" vertex="1" parent="UjvTydkrQOM4uiaJyXsk-19">
          <mxGeometry width="143" height="40" as="geometry" />
        </mxCell>
        <mxCell id="UjvTydkrQOM4uiaJyXsk-21" value="Stage" style="shape=partialRectangle;html=1;whiteSpace=wrap;connectable=0;fillColor=none;top=0;left=0;bottom=0;right=0;overflow=hidden;fontStyle=1" vertex="1" parent="UjvTydkrQOM4uiaJyXsk-19">
          <mxGeometry x="143" width="144" height="40" as="geometry" />
        </mxCell>
        <mxCell id="UjvTydkrQOM4uiaJyXsk-22" value="Status" style="shape=partialRectangle;html=1;whiteSpace=wrap;connectable=0;fillColor=none;top=0;left=0;bottom=0;right=0;overflow=hidden;fontStyle=1" vertex="1" parent="UjvTydkrQOM4uiaJyXsk-19">
          <mxGeometry x="287" width="143" height="40" as="geometry" />
        </mxCell>
        <mxCell id="UjvTydkrQOM4uiaJyXsk-23" value="" style="shape=partialRectangle;html=1;whiteSpace=wrap;collapsible=0;dropTarget=0;pointerEvents=0;fillColor=none;top=0;left=0;bottom=0;right=0;points=[[0,0.5],[1,0.5]];portConstraint=eastwest;" vertex="1" parent="UjvTydkrQOM4uiaJyXsk-18">
          <mxGeometry y="40" width="430" height="40" as="geometry" />
        </mxCell>
        <mxCell id="UjvTydkrQOM4uiaJyXsk-24" value="May 2021" style="shape=partialRectangle;html=1;whiteSpace=wrap;connectable=0;fillColor=none;top=0;left=0;bottom=0;right=0;overflow=hidden;" vertex="1" parent="UjvTydkrQOM4uiaJyXsk-23">
          <mxGeometry width="143" height="40" as="geometry" />
        </mxCell>
        <mxCell id="UjvTydkrQOM4uiaJyXsk-25" value="Age Based Mailing" style="shape=partialRectangle;html=1;whiteSpace=wrap;connectable=0;fillColor=none;top=0;left=0;bottom=0;right=0;overflow=hidden;" vertex="1" parent="UjvTydkrQOM4uiaJyXsk-23">
          <mxGeometry x="143" width="144" height="40" as="geometry" />
        </mxCell>
        <mxCell id="UjvTydkrQOM4uiaJyXsk-26" value="Completed Successfully" style="shape=partialRectangle;html=1;whiteSpace=wrap;connectable=0;fillColor=#d5e8d4;top=0;left=0;bottom=0;right=0;overflow=hidden;strokeColor=#82b366;" vertex="1" parent="UjvTydkrQOM4uiaJyXsk-23">
          <mxGeometry x="287" width="143" height="40" as="geometry" />
        </mxCell>
        <mxCell id="UjvTydkrQOM4uiaJyXsk-27" value="" style="shape=partialRectangle;html=1;whiteSpace=wrap;collapsible=0;dropTarget=0;pointerEvents=0;fillColor=none;top=0;left=0;bottom=0;right=0;points=[[0,0.5],[1,0.5]];portConstraint=eastwest;" vertex="1" parent="UjvTydkrQOM4uiaJyXsk-18">
          <mxGeometry y="80" width="430" height="40" as="geometry" />
        </mxCell>
        <mxCell id="UjvTydkrQOM4uiaJyXsk-28" value="&lt;span style=&quot;color: rgb(0 , 0 , 0) ; font-family: &amp;#34;helvetica&amp;#34; ; font-size: 12px ; font-style: normal ; font-weight: 400 ; letter-spacing: normal ; text-align: center ; text-indent: 0px ; text-transform: none ; word-spacing: 0px ; background-color: rgb(248 , 249 , 250) ; display: inline ; float: none&quot;&gt;May 2021&lt;/span&gt;" style="shape=partialRectangle;html=1;whiteSpace=wrap;connectable=0;fillColor=none;top=0;left=0;bottom=0;right=0;overflow=hidden;" vertex="1" parent="UjvTydkrQOM4uiaJyXsk-27">
          <mxGeometry width="143" height="40" as="geometry" />
        </mxCell>
        <mxCell id="UjvTydkrQOM4uiaJyXsk-29" value="Age Based Cessation" style="shape=partialRectangle;html=1;whiteSpace=wrap;connectable=0;fillColor=none;top=0;left=0;bottom=0;right=0;overflow=hidden;" vertex="1" parent="UjvTydkrQOM4uiaJyXsk-27">
          <mxGeometry x="143" width="144" height="40" as="geometry" />
        </mxCell>
        <mxCell id="UjvTydkrQOM4uiaJyXsk-30" value="Partially Completed" style="shape=partialRectangle;html=1;whiteSpace=wrap;connectable=0;fillColor=#ffe6cc;top=0;left=0;bottom=0;right=0;overflow=hidden;strokeColor=#d79b00;" vertex="1" parent="UjvTydkrQOM4uiaJyXsk-27">
          <mxGeometry x="287" width="143" height="40" as="geometry" />
        </mxCell>
        <mxCell id="UjvTydkrQOM4uiaJyXsk-35" value="Monthly Aged Based Process" style="text;html=1;strokeColor=none;fillColor=none;align=left;verticalAlign=middle;whiteSpace=wrap;rounded=0;fontSize=14;fontStyle=5" vertex="1" parent="1">
          <mxGeometry x="440" y="350" width="280" height="20" as="geometry" />
        </mxCell>
        <mxCell id="UjvTydkrQOM4uiaJyXsk-36" value="Annual School Leaver Process" style="text;html=1;strokeColor=none;fillColor=none;align=left;verticalAlign=middle;whiteSpace=wrap;rounded=0;fontSize=14;fontStyle=5" vertex="1" parent="1">
          <mxGeometry x="440" y="578" width="280" height="20" as="geometry" />
        </mxCell>
      </root>
    </mxGraphModel>
  </diagram>
</mxfile>
